<svg data-v-423bf9ae="" xmlns="http://www.w3.org/2000/svg" viewBox="0 0 394.0950262655783 60" class="font"><!----><!----><defs data-v-423bf9ae=""><linearGradient data-v-423bf9ae="" gradientTransform="rotate(25)" id="24e95db2-1038-41c2-b928-1797f0402b05" x1="0%" y1="0%" x2="100%" y2="0%"><stop data-v-423bf9ae="" offset="0%" style="stop-color: rgb(8, 199, 214); stop-opacity: 1; --darkreader-inline-stopcolor: #3effff;" data-darkreader-inline-stopcolor=""></stop><stop data-v-423bf9ae="" offset="100%" style="stop-color: rgb(2, 2, 62); stop-opacity: 1; --darkreader-inline-stopcolor: #e9e5de;" data-darkreader-inline-stopcolor=""></stop></linearGradient></defs><g data-v-423bf9ae="" id="1dd2b022-5114-41c3-acb9-53c6a2f2c231" fill="url(#24e95db2-1038-41c2-b928-1797f0402b05)" transform="matrix(6.0667338371276855,0,0,6.0667338371276855,-5.581395626068115,-6.0667338371276855)"><path d="M10.88 10.64L0.92 10.64L0.92 8.67L7.10 3.30L1.11 3.30L1.11 1.24L10.74 1.24L10.74 2.97L4.29 8.58L10.88 8.58L10.88 10.64ZM22.79 10.64L13.19 10.64L13.19 1.24L22.70 1.24L22.70 3.25L15.79 3.25L15.79 4.80L22.34 4.80L22.34 6.80L15.79 6.80L15.79 8.63L22.79 8.63L22.79 10.64ZM36.86 10.64L34.11 10.64L27.77 4.18L27.77 10.64L25.24 10.64L25.24 1.24L27.99 1.24L34.34 7.72L34.34 1.24L36.86 1.24L36.86 10.64ZM51.95 5.95L51.95 5.95L51.95 5.95Q51.95 7.16 51.51 8.08L51.51 8.08L51.51 8.08Q51.06 9.01 50.24 9.63L50.24 9.63L50.24 9.63Q49.41 10.25 48.23 10.57L48.23 10.57L48.23 10.57Q47.05 10.89 45.58 10.89L45.58 10.89L45.58 10.89Q44.11 10.89 42.93 10.57L42.93 10.57L42.93 10.57Q41.74 10.25 40.91 9.63L40.91 9.63L40.91 9.63Q40.07 9.01 39.62 8.08L39.62 8.08L39.62 8.08Q39.17 7.16 39.17 5.95L39.17 5.95L39.17 5.95Q39.17 4.74 39.62 3.81L39.62 3.81L39.62 3.81Q40.07 2.88 40.91 2.26L40.91 2.26L40.91 2.26Q41.74 1.64 42.93 1.32L42.93 1.32L42.93 1.32Q44.11 1.00 45.58 1.00L45.58 1.00L45.58 1.00Q47.05 1.00 48.23 1.32L48.23 1.32L48.23 1.32Q49.41 1.64 50.24 2.26L50.24 2.26L50.24 2.26Q51.06 2.88 51.51 3.81L51.51 3.81L51.51 3.81Q51.95 4.74 51.95 5.95ZM49.39 5.95L49.39 5.95L49.39 5.95Q49.39 5.42 49.22 4.90L49.22 4.90L49.22 4.90Q49.05 4.38 48.63 3.96L48.63 3.96L48.63 3.96Q48.20 3.54 47.46 3.28L47.46 3.28L47.46 3.28Q46.72 3.02 45.58 3.02L45.58 3.02L45.58 3.02Q44.82 3.02 44.24 3.14L44.24 3.14L44.24 3.14Q43.65 3.26 43.23 3.47L43.23 3.47L43.23 3.47Q42.81 3.68 42.52 3.97L42.52 3.97L42.52 3.97Q42.23 4.25 42.06 4.58L42.06 4.58L42.06 4.58Q41.89 4.90 41.82 5.25L41.82 5.25L41.82 5.25Q41.75 5.61 41.75 5.95L41.75 5.95L41.75 5.95Q41.75 6.30 41.82 6.65L41.82 6.65L41.82 6.65Q41.89 7.01 42.06 7.33L42.06 7.33L42.06 7.33Q42.23 7.66 42.52 7.94L42.52 7.94L42.52 7.94Q42.81 8.22 43.23 8.43L43.23 8.43L43.23 8.43Q43.65 8.63 44.24 8.75L44.24 8.75L44.24 8.75Q44.82 8.87 45.58 8.87L45.58 8.87L45.58 8.87Q46.72 8.87 47.46 8.61L47.46 8.61L47.46 8.61Q48.20 8.35 48.63 7.94L48.63 7.94L48.63 7.94Q49.05 7.52 49.22 7.00L49.22 7.00L49.22 7.00Q49.39 6.47 49.39 5.95ZM65.88 10.64L63.14 10.64L56.80 4.18L56.80 10.64L54.26 10.64L54.26 1.24L57.02 1.24L63.36 7.72L63.36 1.24L65.88 1.24L65.88 10.64Z"></path></g><!----><!----></svg>