<svg id="visual" viewBox="0 0 960 540" width="960" height="540" xmlns="http://www.w3.org/2000/svg" xmlns:xlink="http://www.w3.org/1999/xlink" version="1.1"><rect x="0" y="0" width="960" height="540" fill="#ffffff"></rect><defs><linearGradient id="grad1_0" x1="43.8%" y1="0%" x2="100%" y2="100%"><stop offset="14.444444444444446%" stop-color="#ffffff" stop-opacity="1"></stop><stop offset="85.55555555555554%" stop-color="#ffffff" stop-opacity="1"></stop></linearGradient></defs><defs><linearGradient id="grad2_0" x1="0%" y1="0%" x2="56.3%" y2="100%"><stop offset="14.444444444444446%" stop-color="#ffffff" stop-opacity="1"></stop><stop offset="85.55555555555554%" stop-color="#ffffff" stop-opacity="1"></stop></linearGradient></defs><g transform="translate(960, 0)"><path d="M0 270C-28.3 267.6 -56.5 265.2 -83.4 256.8C-110.3 248.4 -135.9 233.9 -154 212C-172.1 190 -182.9 160.5 -184.5 134C-186 107.5 -178.4 84 -191.2 62.1C-203.9 40.3 -236.9 20.1 -270 0L0 0Z" fill="#6600FF"></path></g><g transform="translate(0, 540)"><path d="M0 -270C32.4 -274.1 64.7 -278.2 83.4 -256.8C102.1 -235.3 107.1 -188.3 118.7 -163.4C130.3 -138.6 148.5 -135.9 175.6 -127.5C202.6 -119.2 238.6 -105.3 255.8 -83.1C273.1 -60.9 271.5 -30.5 270 0L0 0Z" fill="#6600FF"></path></g></svg>